<?xml version="1.0" encoding="utf-8"?>
<!-- Generator: Adobe Illustrator 27.4.1, SVG Export Plug-In . SVG Version: 6.00 Build 0)  -->
<svg version="1.1" id="Layer_1" xmlns="http://www.w3.org/2000/svg" xmlns:xlink="http://www.w3.org/1999/xlink" x="0px" y="0px"
	 viewBox="0 0 250 250" style="enable-background:new 0 0 250 250;" xml:space="preserve">
<style type="text/css">
	.st0{fill:#CCCABD;}
	.st1{fill:#231F20;}
	.st2{fill:#079B9B;}
	.st3{fill:#02A5A5;}
</style>
<g>
	<g>
		<g>
			<g>
				<path class="st0" d="M225.82,205.35v-73.71H24.69v75.76c0,11.3,13.56,11,13.56,11s162,0,176.03,0
					C227.06,218.4,225.82,205.35,225.82,205.35z"/>
			</g>
		</g>
		<g>
			<g>
				<path class="st1" d="M38.1,220.53c-1.08,0-7.81-0.17-12.08-4.35c-2.3-2.25-3.47-5.2-3.47-8.78v-77.89h205.4v75.76
					c0.07,0.95,0.35,7.03-3.51,11.27c-2.41,2.64-5.83,3.98-10.17,3.98H38.24C38.23,220.53,38.18,220.53,38.1,220.53z M26.82,133.77
					v73.62c0,2.41,0.71,4.29,2.18,5.72c3.27,3.22,9.09,3.13,9.21,3.14h176.07c3.09,0,5.45-0.87,7.02-2.59
					c2.8-3.08,2.41-8.07,2.41-8.12l-0.01-0.2v-71.58H26.82z"/>
			</g>
		</g>
	</g>
	<g>
		<g>
			<path class="st0" d="M121.99,146.18h30.57c2.23,0,4.03,1.8,4.03,4.03v27.58c0,2.22-1.8,4.03-4.03,4.03h-30.57
				c-2.22,0-4.03-1.8-4.03-4.03v-27.58C117.96,147.98,119.77,146.18,121.99,146.18z"/>
		</g>
		<g>
			<path class="st1" d="M152.56,183.95h-30.57c-3.4,0-6.16-2.76-6.16-6.16v-27.59c0-3.4,2.76-6.16,6.16-6.16h30.57
				c3.4,0,6.16,2.76,6.16,6.16v27.59C158.72,181.19,155.96,183.95,152.56,183.95z M121.99,148.31c-1.04,0-1.9,0.85-1.9,1.89v27.59
				c0,1.04,0.85,1.89,1.9,1.89h30.57c1.04,0,1.89-0.85,1.89-1.89v-27.59c0-1.04-0.85-1.89-1.89-1.89H121.99z"/>
		</g>
	</g>
	<g>
		<g>
			<path class="st0" d="M172.9,146.18h29.59c2.08,0,3.77,1.69,3.77,3.77v28.09c0,2.08-1.69,3.77-3.77,3.77H172.9
				c-2.08,0-3.77-1.69-3.77-3.77v-28.09C169.12,147.87,170.81,146.18,172.9,146.18z"/>
		</g>
		<g>
			<path class="st1" d="M202.48,183.95h-29.59c-3.26,0-5.9-2.65-5.9-5.9v-28.09c0-3.26,2.65-5.9,5.9-5.9h29.59
				c3.26,0,5.9,2.65,5.9,5.9v28.09C208.39,181.3,205.74,183.95,202.48,183.95z M172.89,148.31c-0.9,0-1.64,0.74-1.64,1.64v28.09
				c0,0.9,0.74,1.64,1.64,1.64h29.59c0.9,0,1.64-0.74,1.64-1.64v-28.09c0-0.9-0.74-1.64-1.64-1.64H172.89z"/>
		</g>
	</g>
	<g>
		<g>
			<g>
				<path class="st2" d="M72.09,93.53l-0.9,0.9l-37.22,37.22h-9.29c0-21.02,0-38.11,0-38.11H72.09z"/>
			</g>
			<g>
				<path class="st1" d="M34.86,133.77H22.56V91.4h54.69L34.86,133.77z M26.82,129.51h6.28l33.85-33.85H26.82V129.51z"/>
			</g>
		</g>
		<g>
			<g>
				<polygon class="st2" points="101.98,93.53 63.91,131.64 33.98,131.64 71.2,94.43 72.09,93.53 				"/>
			</g>
			<g>
				<path class="st1" d="M64.79,133.77H28.83L71.21,91.4h35.91L64.79,133.77z M39.13,129.51h23.9l33.81-33.85H72.97L39.13,129.51z"
					/>
			</g>
		</g>
		<g>
			<g>
				<polygon class="st2" points="137.28,93.53 99.16,131.64 63.91,131.64 101.98,93.53 				"/>
			</g>
			<g>
				<path class="st1" d="M100.05,133.77H58.77l42.33-42.38h41.33L100.05,133.77z M69.05,129.51h29.23l33.85-33.85h-29.27
					L69.05,129.51z"/>
			</g>
		</g>
		<g>
			<g>
				<polygon class="st2" points="164.73,93.53 126.62,131.64 99.16,131.64 137.28,93.53 				"/>
			</g>
			<g>
				<path class="st1" d="M127.5,133.77H94.02l42.38-42.38h33.48L127.5,133.77z M104.31,129.51h21.43l33.85-33.85h-21.42
					L104.31,129.51z"/>
			</g>
		</g>
		<g>
			<g>
				<polygon class="st3" points="197.09,93.53 158.98,131.64 126.62,131.64 164.73,93.53 				"/>
			</g>
			<g>
				<path class="st1" d="M159.86,133.77h-38.39l42.38-42.38h38.39L159.86,133.77z M131.77,129.51h26.33l33.85-33.85h-26.33
					L131.77,129.51z"/>
			</g>
		</g>
		<g>
			<g>
				<polygon class="st3" points="225.82,93.53 225.82,98.43 192.57,131.64 158.98,131.64 197.09,93.53 				"/>
			</g>
			<g>
				<path class="st1" d="M193.45,133.77h-39.62L196.2,91.4h31.75v7.92L193.45,133.77z M164.12,129.51h27.56l32-31.96v-1.89h-25.72
					L164.12,129.51z"/>
			</g>
		</g>
		<g>
			<g>
				<polygon class="st3" points="225.82,98.43 225.82,131.64 192.57,131.64 				"/>
			</g>
			<g>
				<path class="st1" d="M227.95,133.77h-40.53l40.53-40.48V133.77z M197.72,129.51h25.97v-25.94L197.72,129.51z"/>
			</g>
		</g>
	</g>
	<g>
		<path class="st3" d="M64.55,37.47L48.39,62.32l-23.7-4.14l4.99-18.29c2-4.99,4.14-7.97,8.61-7.16L64.55,37.47z"/>
		<path class="st1" d="M49.41,64.66l-27.4-4.78l5.6-20.55c1.44-3.64,3.98-9.98,11.05-8.7l29.42,5.3L49.41,64.66z M27.36,56.49
			l20.01,3.49L61.01,39l-23.1-4.16c-2.4-0.44-4.04,0.35-6.26,5.86L27.36,56.49z"/>
	</g>
	<g>
		<polygon class="st3" points="96.69,43.27 80.66,67.99 48.39,62.32 64.55,37.47 		"/>
		<path class="st1" d="M81.68,70.34l-36.84-6.47l18.69-28.74l36.69,6.62L81.68,70.34z M51.94,60.78l27.71,4.87L93.16,44.8
			l-27.59-4.98L51.94,60.78z"/>
	</g>
	<g>
		<polygon class="st3" points="118.09,47.15 101.98,71.75 80.66,67.99 96.69,43.27 		"/>
		<path class="st1" d="M102.99,74.09l-25.87-4.55l18.55-28.62l25.96,4.71L102.99,74.09z M84.2,66.45l16.76,2.95l13.58-20.73
			l-16.84-3.05L84.2,66.45z"/>
	</g>
	<g>
		<polygon class="st3" points="225.82,66.59 225.82,93.53 101.98,71.75 118.09,47.15 		"/>
		<path class="st1" d="M227.95,96.07L98.42,73.28l18.66-28.48l110.87,20V96.07z M105.53,70.21l118.16,20.78V68.37L119.1,49.5
			L105.53,70.21z"/>
	</g>
	<g>
		<rect x="38.23" y="144.05" class="st1" width="10.16" height="4.26"/>
	</g>
	<g>
		<rect x="52.02" y="144.05" class="st1" width="41.5" height="4.26"/>
	</g>
	<g>
		<rect x="38.23" y="152.08" class="st1" width="55.3" height="4.26"/>
	</g>
	<g>
		<rect x="38.23" y="158.48" class="st1" width="55.3" height="4.26"/>
	</g>
	<g>
		<polygon class="st1" points="38.23,164.5 93.53,164.59 93.53,172.93 38.23,173.02 38.23,164.5 		"/>
	</g>
	<g>
		<polygon class="st1" points="38.23,174.41 93.53,174.52 93.53,183.69 38.23,183.79 38.23,174.41 		"/>
	</g>
</g>
</svg>